# xmcd
#
# Track frame offsets:
#	150
#	13060
#	31140
#	46720
#	66757
#	87910
#	104257
#	124522
#	144640
#	163530
#	179907
#
# Disc length: 2549 seconds
#
# Revision: 0
# Processed by: cddbd v1.4PL0 Copyright (c) Steve Scherf et al.
# Submitted via: EasyCDDAExtractor 4.5.0.1
#
DISCID=8d09f30b
DTITLE=Rob Frazier's Blues Farmers - Jammin' The Blues
DYEAR=1999
DGENRE=Rock/Blues
TTITLE0=Alive and Kickin'
TTITLE1=Jesus Freak
TTITLE2=Bye Bye Bye
TTITLE3=Back To The Garden
TTITLE4=Reason For Being
TTITLE5=No Conviction Blues
TTITLE6=One Love/People Get Ready
TTITLE7=Go For The Doctor
TTITLE8=Everywhere
TTITLE9=When The Going Gets Tough
TTITLE10=I'm So Glad
EXTD=
EXTT0=
EXTT1=
EXTT2=
EXTT3=
EXTT4=
EXTT5=
EXTT6=
EXTT7=
EXTT8=
EXTT9=
EXTT10=
PLAYORDER=
